<svg xmlns="http://www.w3.org/2000/svg" width="500" height="500" viewBox="0 0 500 500" version="1.1"><path d="M 123.655 70.405 C 118.516 72.309, 115.794 75.034, 112.093 81.977 L 109 87.780 109.044 154.140 C 109.079 206.957, 109.361 221.266, 110.427 224.252 C 112.629 230.423, 116.854 235.039, 122.893 237.871 L 128.500 240.500 168.500 240.427 C 206.446 240.357, 208.911 240.241, 216.500 238.161 C 240.936 231.464, 260.419 215.922, 270.897 194.767 C 278.219 179.986, 280 171.999, 280 153.952 C 280 141.126, 279.670 138.085, 277.446 130.411 C 274.017 118.579, 268.187 107.697, 260.366 98.530 C 249.458 85.746, 239.769 79.194, 222.500 72.928 L 213.500 69.662 170.500 69.321 C 135.125 69.041, 126.818 69.233, 123.655 70.405 M 323.972 158.574 C 323.437 159.980, 323 162.617, 323 164.434 C 323 168.840, 320.299 184.146, 318.312 191 C 307.061 229.808, 274.638 263.908, 237.150 276.361 C 218.126 282.681, 216.317 282.874, 175 282.998 C 130.959 283.129, 124.455 283.653, 119.456 287.466 C 114.074 291.571, 111.037 296.909, 109.889 304.283 C 109.262 308.315, 108.991 330.747, 109.185 362.665 L 109.500 414.500 112.187 419.070 C 115.197 424.191, 120.519 428.256, 126.500 430.003 C 132.329 431.705, 213.106 432.442, 249 431.120 C 281.041 429.940, 287.540 428.985, 304.500 422.965 C 353.019 405.742, 387.227 365.800, 398.124 313.648 C 401.014 299.815, 401.260 270.641, 398.592 258 C 389.554 215.172, 364.762 179.312, 330.222 159.106 L 324.943 156.019 323.972 158.574" stroke="none" fill="#fbfbfb" fill-rule="evenodd"/><path d="M 82.623 1.043 C 72.860 2.700, 57.841 8.275, 49.404 13.374 C 26.117 27.447, 10.249 48.310, 2.702 74.776 L 0.500 82.500 0.193 245.500 C -0.034 366.207, 0.190 410.446, 1.055 416 C 5.281 443.132, 21.314 468.017, 44.583 483.563 C 54.195 489.984, 60.728 492.986, 73.217 496.723 L 82.500 499.500 249.500 499.500 L 416.500 499.500 425 497.181 C 448.229 490.842, 466.888 478.071, 481.433 458.555 C 489.480 447.758, 497.007 429.968, 498.596 417.988 C 498.963 415.220, 499.654 412.714, 500.132 412.419 C 500.617 412.119, 501 339.972, 501 248.882 C 501 156.179, 500.623 86.115, 500.126 86.422 C 499.646 86.719, 498.955 84.716, 498.590 81.970 C 497.007 70.032, 489.468 52.226, 481.433 41.445 C 474.584 32.256, 464.306 22.376, 455.417 16.437 C 446.087 10.204, 439.677 7.207, 427.326 3.301 L 418.500 0.510 253 0.363 C 161.975 0.281, 85.306 0.588, 82.623 1.043 M 123.655 70.405 C 118.516 72.309, 115.794 75.034, 112.093 81.977 L 109 87.780 109.044 154.140 C 109.079 206.957, 109.361 221.266, 110.427 224.252 C 112.629 230.423, 116.854 235.039, 122.893 237.871 L 128.500 240.500 168.500 240.427 C 206.446 240.357, 208.911 240.241, 216.500 238.161 C 240.936 231.464, 260.419 215.922, 270.897 194.767 C 278.219 179.986, 280 171.999, 280 153.952 C 280 141.126, 279.670 138.085, 277.446 130.411 C 274.017 118.579, 268.187 107.697, 260.366 98.530 C 249.458 85.746, 239.769 79.194, 222.500 72.928 L 213.500 69.662 170.500 69.321 C 135.125 69.041, 126.818 69.233, 123.655 70.405 M 0.488 250 C 0.488 339.925, 0.606 376.712, 0.750 331.750 C 0.894 286.787, 0.894 213.212, 0.750 168.250 C 0.606 123.287, 0.488 160.075, 0.488 250 M 323.972 158.574 C 323.437 159.980, 323 162.617, 323 164.434 C 323 168.840, 320.299 184.146, 318.312 191 C 307.061 229.808, 274.638 263.908, 237.150 276.361 C 218.126 282.681, 216.317 282.874, 175 282.998 C 130.959 283.129, 124.455 283.653, 119.456 287.466 C 114.074 291.571, 111.037 296.909, 109.889 304.283 C 109.262 308.315, 108.991 330.747, 109.185 362.665 L 109.500 414.500 112.187 419.070 C 115.197 424.191, 120.519 428.256, 126.500 430.003 C 132.329 431.705, 213.106 432.442, 249 431.120 C 281.041 429.940, 287.540 428.985, 304.500 422.965 C 353.019 405.742, 387.227 365.800, 398.124 313.648 C 401.014 299.815, 401.260 270.641, 398.592 258 C 389.554 215.172, 364.762 179.312, 330.222 159.106 L 324.943 156.019 323.972 158.574" stroke="none" fill="#040404" fill-rule="evenodd"/></svg>