<svg xmlns="http://www.w3.org/2000/svg" width="1000" height="1000" viewBox="0 0 1000 1000" version="1.1"><path d="M 437.500 211.457 C 439.150 212.256, 441.625 212.937, 443 212.970 C 444.988 213.018, 445.193 213.229, 444 214 C 442.794 214.780, 442.953 214.972, 444.814 214.985 C 446.087 214.993, 449.462 216.066, 452.314 217.369 C 455.166 218.671, 458.962 220.057, 460.750 220.448 C 462.538 220.839, 464 221.463, 464 221.835 C 464 222.207, 465.462 223.097, 467.250 223.812 C 469.937 224.887, 474.232 226.818, 478.250 228.756 C 478.663 228.955, 479 228.905, 479 228.645 C 479 227.909, 469.108 221.881, 463 218.893 C 453.799 214.393, 444.764 211.200, 439.500 210.586 C 434.567 210.011, 434.540 210.023, 437.500 211.457 M 494 240.400 C 494 240.945, 500.291 247.198, 502.618 248.965 C 503.653 249.752, 502.267 248.056, 499.538 245.197 C 494.755 240.188, 494 239.534, 494 240.400 M 615.141 355.500 C 614.998 358.259, 615.335 360, 616.013 360 C 616.621 360, 616.847 359.561, 616.516 359.025 C 616.184 358.489, 617.977 357.531, 620.499 356.896 L 625.084 355.741 621.595 353.371 C 616.488 349.901, 615.412 350.256, 615.141 355.500" stroke="none" fill="#e4ece6" fill-rule="evenodd"/><path d="M 289.081 205.552 C 286.101 206.373, 282.177 207.964, 280.360 209.086 C 275.420 212.140, 269.371 219.502, 265.735 226.886 L 262.500 233.456 261.700 334.478 C 260.835 443.688, 261.086 452.141, 265.486 461.750 C 270.843 473.451, 278.296 479.787, 290.734 483.212 C 298.231 485.277, 300.475 485.354, 355.500 485.426 C 405.917 485.491, 413.799 485.291, 423.747 483.691 C 440.318 481.026, 450.954 477.670, 465.500 470.518 C 499.113 453.992, 523.357 425.997, 535.298 389.923 C 540.747 373.463, 541.500 367.885, 541.500 344 C 541.500 326.986, 541.121 320.742, 539.684 314.074 C 535.921 296.616, 528.740 279.545, 518.830 264.500 C 512.408 254.752, 497.191 238.812, 486.885 231.040 C 472.558 220.234, 449.393 209.924, 431.242 206.274 C 419.725 203.957, 297.127 203.335, 289.081 205.552 M 437.500 211.457 C 439.150 212.256, 441.625 212.937, 443 212.970 C 444.988 213.018, 445.193 213.229, 444 214 C 442.794 214.780, 442.953 214.972, 444.814 214.985 C 446.087 214.993, 449.462 216.066, 452.314 217.369 C 455.166 218.671, 458.962 220.057, 460.750 220.448 C 462.538 220.839, 464 221.463, 464 221.835 C 464 222.207, 465.462 223.097, 467.250 223.812 C 469.937 224.887, 474.232 226.818, 478.250 228.756 C 478.663 228.955, 479 228.905, 479 228.645 C 479 227.909, 469.108 221.881, 463 218.893 C 453.799 214.393, 444.764 211.200, 439.500 210.586 C 434.567 210.011, 434.540 210.023, 437.500 211.457 M 494 240.400 C 494 240.945, 500.291 247.198, 502.618 248.965 C 503.653 249.752, 502.267 248.056, 499.538 245.197 C 494.755 240.188, 494 239.534, 494 240.400 M 612.625 350.125 C 612.281 351.844, 612 355.249, 612 357.692 C 612 363.924, 608.503 385.542, 605.505 397.847 C 600.645 417.792, 589.685 442.235, 577.283 460.788 C 565.036 479.109, 546.587 499.135, 531.077 510.942 C 501.332 533.584, 475.253 545.225, 437.500 552.710 C 429.410 554.314, 421.677 554.498, 361 554.524 C 285.315 554.557, 287.814 554.336, 278.315 561.846 C 269.669 568.682, 264.709 576.896, 263.049 587.129 C 262.396 591.153, 262.018 624.256, 262.022 677 C 262.030 767.439, 262.079 768.340, 267.473 777.544 C 270.766 783.163, 278.136 789.715, 284.376 792.572 C 287.251 793.888, 292.955 795.390, 297.052 795.908 C 308.239 797.326, 428.365 798.063, 478.500 797.022 C 532.439 795.902, 546.137 794.295, 573.085 785.926 C 634.540 766.842, 685.597 723.225, 713.819 665.699 C 724.682 643.557, 732.576 617.754, 736.673 591 C 739.052 575.466, 739.048 537.120, 736.666 522.134 C 725.265 450.407, 685.244 389.863, 624.268 352.099 C 619.740 349.294, 615.408 347, 614.643 347 C 613.877 347, 612.969 348.406, 612.625 350.125 M 615.141 355.500 C 614.998 358.259, 615.335 360, 616.013 360 C 616.621 360, 616.847 359.561, 616.516 359.025 C 616.184 358.489, 617.977 357.531, 620.499 356.896 L 625.084 355.741 621.595 353.371 C 616.488 349.901, 615.412 350.256, 615.141 355.500" stroke="none" fill="#fbfbfb" fill-rule="evenodd"/></svg>