<svg xmlns="http://www.w3.org/2000/svg" width="500" height="500" viewBox="0 0 500 500" version="1.1"><path d="M 220.441 106.532 C 221.509 107.339, 222.832 108, 223.382 108 C 223.932 108, 223.509 107.339, 222.441 106.532 C 221.374 105.724, 220.050 105.064, 219.500 105.064 C 218.950 105.064, 219.374 105.724, 220.441 106.532 M 136.333 110.696 C 136.333 111.587, 136.864 111.616, 138.417 110.811 C 141.384 109.270, 141.402 109.187, 138.732 109.352 C 137.413 109.433, 136.333 110.038, 136.333 110.696 M 310 177.738 C 310 178.314, 310.704 179.056, 311.563 179.386 C 312.423 179.716, 312.850 180.434, 312.511 180.981 C 312.144 181.577, 312.586 181.712, 313.612 181.319 C 314.868 180.836, 315.109 181.015, 314.510 181.985 C 313.989 182.826, 314.079 183.069, 314.756 182.651 C 315.956 181.909, 315.832 179.459, 314.535 178.279 C 314.065 177.851, 314.003 178.063, 314.399 178.750 C 315.420 180.524, 313.987 180.298, 311.829 178.345 C 310.823 177.435, 310 177.162, 310 177.738 M 329.333 192.456 C 329.333 193.257, 329.721 193.672, 330.195 193.380 C 330.668 193.087, 331.928 193.894, 332.995 195.174 C 334.061 196.453, 334.948 197.102, 334.967 196.615 C 334.996 195.845, 330.378 191, 329.615 191 C 329.460 191, 329.333 191.655, 329.333 192.456 M 338.116 200.128 C 338.052 201.023, 338.675 202.315, 339.500 203 C 340.536 203.860, 341 203.898, 341 203.122 C 341 202.505, 340.583 202, 340.073 202 C 339.564 202, 338.941 201.213, 338.689 200.250 C 338.303 198.774, 338.214 198.754, 338.116 200.128 M 343.750 207.662 C 344.438 207.940, 345 208.749, 345 209.461 C 345 210.173, 345.663 211.305, 346.473 211.978 C 347.722 213.014, 347.711 212.728, 346.400 210.100 C 345.550 208.395, 344.324 207.036, 343.677 207.079 C 342.852 207.134, 342.874 207.309, 343.750 207.662 M 250.065 218.579 C 251.002 219.708, 250.911 220, 249.622 220 C 248.730 220, 248 220.423, 248 220.941 C 248 222.916, 249.568 222.703, 251.216 220.505 C 252.857 218.313, 252.844 218.193, 250.908 217.686 C 249.251 217.253, 249.099 217.414, 250.065 218.579 M 136 233.313 C 136 233.485, 137.434 234.948, 139.186 236.563 L 142.372 239.500 139.936 236.305 C 137.867 233.592, 136 232.172, 136 233.313 M 283.345 240.543 C 282.445 242.889, 283.417 243.164, 284.796 240.955 C 285.569 239.717, 285.635 239, 284.977 239 C 284.405 239, 283.671 239.694, 283.345 240.543 M 277.559 246.905 C 277.192 247.499, 277.299 248.712, 277.797 249.602 C 278.615 251.063, 278.768 251.048, 279.384 249.442 C 280.165 247.406, 278.597 245.225, 277.559 246.905 M 272 253.091 C 270.005 254.822, 269.433 255.674, 270.669 255.072 C 272.262 254.297, 272.944 254.333, 273.236 255.209 C 273.543 256.129, 273.803 256.127, 274.376 255.201 C 274.798 254.518, 274.594 254, 273.904 254 C 273.151 254, 273.377 253.241, 274.500 252 C 277.107 249.119, 276.041 249.584, 272 253.091 M 264.258 260.333 C 263.446 262.115, 263.497 262.667, 264.472 262.667 C 265.175 262.667, 265.750 261.617, 265.750 260.333 C 265.750 259.050, 265.653 258, 265.536 258 C 265.418 258, 264.843 259.050, 264.258 260.333 M 149 277.915 L 146.500 278.631 149 279.066 C 150.375 279.304, 155.100 279.275, 159.500 279 L 167.500 278.500 162 277.759 C 155.567 276.892, 152.443 276.929, 149 277.915 M 336.750 355.998 C 338.505 357.966, 338.313 359.504, 336.500 358 C 335.224 356.941, 335.011 357.185, 335.070 359.628 C 335.125 361.853, 335.303 362.089, 335.859 360.676 C 336.255 359.673, 336.999 358.919, 337.514 359.001 C 339.236 359.275, 339.088 357.316, 337.283 355.948 C 335.762 354.795, 335.683 354.802, 336.750 355.998 M 309.966 378.042 C 308.686 378.852, 308.690 378.973, 310 379 C 311.333 379.027, 311.333 379.138, 310 380 C 308.268 381.119, 309.642 381.197, 312.347 380.133 C 313.886 379.527, 313.964 379.215, 312.813 378.260 C 311.926 377.523, 310.910 377.445, 309.966 378.042" stroke="none" fill="#0c0c0b" fill-rule="evenodd"/><path d="M 141.500 103.845 C 135.633 106.592, 133.553 109.243, 134.975 112.167 C 136.044 114.363, 136.021 114.388, 134.587 112.602 C 133.118 110.772, 133.025 110.803, 132.019 113.450 C 130.755 116.776, 130.099 221.604, 131.307 227.310 C 132.209 231.571, 137.766 238.310, 142.320 240.665 C 150.816 245.059, 207.469 244.564, 222.500 239.965 C 233.926 236.469, 241.596 231.617, 251.529 221.603 C 258.409 214.667, 261.435 210.714, 264.240 205 C 277.458 178.076, 273.253 145.792, 253.740 124.393 C 246.749 116.726, 232.628 106.353, 235.493 110.989 C 235.850 111.566, 235.424 111.716, 234.468 111.349 C 233.192 110.860, 233.118 110.545, 234.132 109.918 C 235.488 109.080, 235.445 109.058, 224 104.690 C 218.840 102.721, 216.242 102.572, 182 102.282 C 148.045 101.995, 145.221 102.104, 141.500 103.845 M 220.441 106.532 C 221.509 107.339, 222.832 108, 223.382 108 C 223.932 108, 223.509 107.339, 222.441 106.532 C 221.374 105.724, 220.050 105.064, 219.500 105.064 C 218.950 105.064, 219.374 105.724, 220.441 106.532 M 136.333 110.696 C 136.333 111.587, 136.864 111.616, 138.417 110.811 C 141.384 109.270, 141.402 109.187, 138.732 109.352 C 137.413 109.433, 136.333 110.038, 136.333 110.696 M 306.667 173.667 C 306.300 174.033, 305.995 175.721, 305.989 177.417 C 305.968 183.764, 301.141 203.815, 297.544 212.500 C 291.691 226.631, 284.746 237.226, 274.592 247.512 C 261.983 260.285, 249.198 267.929, 231.628 273.198 C 225.045 275.173, 221.482 275.380, 185 275.918 C 141.900 276.553, 142.889 276.415, 136.589 282.657 C 131.074 288.122, 131.071 288.153, 130.774 337.160 L 130.500 382.500 132.785 387.138 C 135.569 392.789, 140.723 396.538, 147.783 398.049 C 154.953 399.584, 265.136 398.714, 273 397.061 C 282.564 395.051, 296.443 390.076, 305.523 385.404 C 317.507 379.237, 326.030 373.017, 335.503 363.522 C 358.805 340.166, 371.444 307.412, 369.619 275.113 C 368.374 253.079, 365.589 241.974, 356.919 224.467 C 347.865 206.184, 332.986 189.155, 316.332 178.016 C 308.659 172.884, 307.825 172.509, 306.667 173.667 M 310 177.738 C 310 178.314, 310.704 179.056, 311.563 179.386 C 312.423 179.716, 312.850 180.434, 312.511 180.981 C 312.144 181.577, 312.586 181.712, 313.612 181.319 C 314.868 180.836, 315.109 181.015, 314.510 181.985 C 313.989 182.826, 314.079 183.069, 314.756 182.651 C 315.956 181.909, 315.832 179.459, 314.535 178.279 C 314.065 177.851, 314.003 178.063, 314.399 178.750 C 315.420 180.524, 313.987 180.298, 311.829 178.345 C 310.823 177.435, 310 177.162, 310 177.738 M 329.333 192.456 C 329.333 193.257, 329.721 193.672, 330.195 193.380 C 330.668 193.087, 331.928 193.894, 332.995 195.174 C 334.061 196.453, 334.948 197.102, 334.967 196.615 C 334.996 195.845, 330.378 191, 329.615 191 C 329.460 191, 329.333 191.655, 329.333 192.456 M 338.116 200.128 C 338.052 201.023, 338.675 202.315, 339.500 203 C 340.536 203.860, 341 203.898, 341 203.122 C 341 202.505, 340.583 202, 340.073 202 C 339.564 202, 338.941 201.213, 338.689 200.250 C 338.303 198.774, 338.214 198.754, 338.116 200.128 M 343.750 207.662 C 344.438 207.940, 345 208.749, 345 209.461 C 345 210.173, 345.663 211.305, 346.473 211.978 C 347.722 213.014, 347.711 212.728, 346.400 210.100 C 345.550 208.395, 344.324 207.036, 343.677 207.079 C 342.852 207.134, 342.874 207.309, 343.750 207.662 M 250.065 218.579 C 251.002 219.708, 250.911 220, 249.622 220 C 248.730 220, 248 220.423, 248 220.941 C 248 222.916, 249.568 222.703, 251.216 220.505 C 252.857 218.313, 252.844 218.193, 250.908 217.686 C 249.251 217.253, 249.099 217.414, 250.065 218.579 M 136 233.313 C 136 233.485, 137.434 234.948, 139.186 236.563 L 142.372 239.500 139.936 236.305 C 137.867 233.592, 136 232.172, 136 233.313 M 283.345 240.543 C 282.445 242.889, 283.417 243.164, 284.796 240.955 C 285.569 239.717, 285.635 239, 284.977 239 C 284.405 239, 283.671 239.694, 283.345 240.543 M 277.559 246.905 C 277.192 247.499, 277.299 248.712, 277.797 249.602 C 278.615 251.063, 278.768 251.048, 279.384 249.442 C 280.165 247.406, 278.597 245.225, 277.559 246.905 M 272 253.091 C 270.005 254.822, 269.433 255.674, 270.669 255.072 C 272.262 254.297, 272.944 254.333, 273.236 255.209 C 273.543 256.129, 273.803 256.127, 274.376 255.201 C 274.798 254.518, 274.594 254, 273.904 254 C 273.151 254, 273.377 253.241, 274.500 252 C 277.107 249.119, 276.041 249.584, 272 253.091 M 264.258 260.333 C 263.446 262.115, 263.497 262.667, 264.472 262.667 C 265.175 262.667, 265.750 261.617, 265.750 260.333 C 265.750 259.050, 265.653 258, 265.536 258 C 265.418 258, 264.843 259.050, 264.258 260.333 M 149 277.915 L 146.500 278.631 149 279.066 C 150.375 279.304, 155.100 279.275, 159.500 279 L 167.500 278.500 162 277.759 C 155.567 276.892, 152.443 276.929, 149 277.915 M 336.750 355.998 C 338.505 357.966, 338.313 359.504, 336.500 358 C 335.224 356.941, 335.011 357.185, 335.070 359.628 C 335.125 361.853, 335.303 362.089, 335.859 360.676 C 336.255 359.673, 336.999 358.919, 337.514 359.001 C 339.236 359.275, 339.088 357.316, 337.283 355.948 C 335.762 354.795, 335.683 354.802, 336.750 355.998 M 309.966 378.042 C 308.686 378.852, 308.690 378.973, 310 379 C 311.333 379.027, 311.333 379.138, 310 380 C 308.268 381.119, 309.642 381.197, 312.347 380.133 C 313.886 379.527, 313.964 379.215, 312.813 378.260 C 311.926 377.523, 310.910 377.445, 309.966 378.042" stroke="none" fill="#040404" fill-rule="evenodd"/></svg>